<svg xmlns="http://www.w3.org/2000/svg" width="120" height="32" viewBox="0 0 120 32" fill="none"><path d="M52.2247 8.85742H54.3712C54.4327 8.85742 54.4838 8.87834 54.5273 8.92164C54.5693 8.96495 54.5918 9.01571 54.5918 9.07694V21.412C54.5918 21.4732 54.5708 21.524 54.5273 21.5673C54.4838 21.6106 54.4327 21.6315 54.3712 21.6315H52.2247C52.1632 21.6315 52.1121 21.6106 52.0686 21.5673C52.0251 21.5255 52.0041 21.4732 52.0041 21.412V13.3658C52.0041 13.3181 51.9921 13.2927 51.968 13.2927C51.944 13.2927 51.9185 13.3106 51.8945 13.3479L49.9507 16.3764C49.8891 16.4735 49.8035 16.5228 49.694 16.5228H48.6117C48.5021 16.5228 48.4166 16.475 48.355 16.3764L46.4112 13.3479C46.3872 13.3121 46.3617 13.2956 46.3377 13.3016C46.3137 13.3076 46.3016 13.336 46.3016 13.3838V21.412C46.3016 21.4732 46.2806 21.524 46.2371 21.5673C46.1936 21.6106 46.1425 21.6315 46.081 21.6315H43.9345C43.873 21.6315 43.8219 21.6106 43.7784 21.5673C43.7349 21.5255 43.7139 21.4732 43.7139 21.412V9.07694C43.7139 9.01571 43.7349 8.96495 43.7784 8.92164C43.8219 8.87834 43.873 8.85742 43.9345 8.85742H46.081C46.1906 8.85742 46.2761 8.9067 46.3377 9.00377L49.0891 13.2553C49.1251 13.3285 49.1626 13.3285 49.1986 13.2553L51.968 9.00377C52.0296 8.9067 52.1151 8.85742 52.2247 8.85742Z" fill="var(--text_00)"></path><path d="M56.8898 21.5673C56.8462 21.5255 56.8252 21.4732 56.8252 21.412V9.07694C56.8252 9.01571 56.8462 8.96495 56.8898 8.92164C56.9333 8.87834 56.9843 8.85742 57.0458 8.85742H59.1923C59.2539 8.85742 59.3049 8.87834 59.3484 8.92164C59.3905 8.96495 59.413 9.01571 59.413 9.07694V21.412C59.413 21.4732 59.392 21.524 59.3484 21.5673C59.3049 21.6106 59.2539 21.6315 59.1923 21.6315H57.0458C56.9843 21.6315 56.9333 21.6106 56.8898 21.5673Z" fill="var(--text_00)"></path><path d="M68.3698 8.92314C68.4118 8.88132 68.4643 8.85892 68.5259 8.85892H70.6724C70.7339 8.85892 70.7849 8.87983 70.8285 8.92314C70.8705 8.96645 70.893 9.01721 70.893 9.07843V21.4135C70.893 21.4747 70.872 21.5255 70.8285 21.5688C70.7849 21.6121 70.7339 21.633 70.6724 21.633H68.5994C68.4763 21.633 68.3908 21.5852 68.3427 21.4867L63.592 13.6764C63.568 13.6406 63.5425 13.6242 63.5184 13.6302C63.4944 13.6361 63.4824 13.6645 63.4824 13.7123L63.5184 21.412C63.5184 21.4732 63.4974 21.524 63.4539 21.5673C63.4104 21.6106 63.3593 21.6315 63.2978 21.6315H61.1513C61.0898 21.6315 61.0387 21.6106 60.9952 21.5673C60.9517 21.5255 60.9307 21.4732 60.9307 21.412V9.07694C60.9307 9.01571 60.9517 8.96495 60.9952 8.92164C61.0387 8.87834 61.0898 8.85742 61.1513 8.85742H63.2242C63.3458 8.85742 63.4314 8.9067 63.4809 9.00377L68.2122 16.7766C68.2362 16.8125 68.2602 16.8289 68.2857 16.8229C68.3097 16.817 68.3217 16.7901 68.3217 16.7408L68.3037 9.07694C68.3037 9.01571 68.3248 8.96495 68.3683 8.92164L68.3698 8.92314Z" fill="var(--text_00)"></path><path d="M73.9054 21.5673C73.8618 21.5255 73.8408 21.4732 73.8408 21.412V9.07694C73.8408 9.01571 73.8618 8.96495 73.9054 8.92164C73.9489 8.87834 73.9999 8.85742 74.0615 8.85742H76.208C76.2695 8.85742 76.3205 8.87834 76.3641 8.92164C76.4061 8.96495 76.4286 9.01571 76.4286 9.07694V21.412C76.4286 21.4732 76.4076 21.524 76.3641 21.5673C76.3205 21.6106 76.2695 21.6315 76.208 21.6315H74.0615C73.9999 21.6315 73.9489 21.6106 73.9054 21.5673Z" fill="var(--text_00)"></path><path d="M87.1798 8.85742H89.3263C89.3878 8.85742 89.4389 8.87834 89.4824 8.92164C89.5244 8.96495 89.5469 9.01571 89.5469 9.07694V21.412C89.5469 21.4732 89.5259 21.524 89.4824 21.5673C89.4389 21.6106 89.3878 21.6315 89.3263 21.6315H87.1798C87.1183 21.6315 87.0672 21.6106 87.0237 21.5673C86.9802 21.5255 86.9591 21.4732 86.9591 21.412V13.3658C86.9591 13.3181 86.9471 13.2927 86.9231 13.2927C86.8991 13.2927 86.8736 13.3106 86.8496 13.3479L84.9057 16.3764C84.8442 16.4735 84.7586 16.5228 84.6491 16.5228H83.5668C83.4573 16.5228 83.3717 16.475 83.3102 16.3764L81.3663 13.3479C81.3423 13.3121 81.3168 13.2956 81.2927 13.3016C81.2687 13.3076 81.2567 13.336 81.2567 13.3838V21.412C81.2567 21.4732 81.2357 21.524 81.1922 21.5673C81.1487 21.6106 81.0976 21.6315 81.0361 21.6315H78.8896C78.8281 21.6315 78.777 21.6106 78.7335 21.5673C78.6899 21.5255 78.6689 21.4732 78.6689 21.412V9.07694C78.6689 9.01571 78.6899 8.96495 78.7335 8.92164C78.777 8.87834 78.8281 8.85742 78.8896 8.85742H81.0361C81.1457 8.85742 81.2312 8.9067 81.2927 9.00377L84.0442 13.2553C84.0802 13.3285 84.1177 13.3285 84.1537 13.2553L86.9231 9.00377C86.9847 8.9067 87.0702 8.85742 87.1798 8.85742Z" fill="var(--text_00)"></path><path d="M99.709 21.4478L99.1581 19.6603C99.1341 19.6125 99.1026 19.5871 99.0665 19.5871H94.5544C94.5184 19.5871 94.4869 19.611 94.4628 19.6603L93.9315 21.4478C93.8955 21.5703 93.8159 21.63 93.6928 21.63H91.3632C91.2897 21.63 91.2341 21.6091 91.1981 21.5658C91.1621 21.524 91.1546 21.4598 91.1801 21.3746L95.1413 9.03961C95.1773 8.91864 95.2569 8.85742 95.38 8.85742H98.259C98.3805 8.85742 98.4601 8.91864 98.4976 9.03961L102.459 21.3746C102.471 21.3985 102.477 21.4299 102.477 21.4657C102.477 21.5748 102.409 21.63 102.276 21.63H99.9461C99.8245 21.63 99.745 21.5688 99.7075 21.4478H99.709ZM95.1969 17.598H98.4256C98.4991 17.598 98.5232 17.5621 98.4991 17.489L96.848 12.0696C96.836 12.0218 96.818 11.9994 96.7925 12.0054C96.7684 12.0114 96.7489 12.0323 96.7369 12.0696L95.1233 17.489C95.1113 17.5621 95.1353 17.598 95.1969 17.598Z" fill="var(--text_00)"></path><path d="M103.543 21.5588C103.507 21.511 103.513 21.4498 103.561 21.3766L107.118 15.3002C107.142 15.2643 107.142 15.227 107.118 15.1912L103.561 9.11473L103.525 9.00572C103.525 8.90865 103.592 8.85938 103.726 8.85938H106.055C106.177 8.85938 106.269 8.90865 106.33 9.00572L108.714 13.1841C108.75 13.2573 108.787 13.2573 108.823 13.1841L111.207 9.00572C111.269 8.90865 111.36 8.85938 111.482 8.85938H113.793C113.879 8.85938 113.94 8.88327 113.976 8.93255C114.012 8.98183 114.006 9.04156 113.958 9.11473L110.401 15.1912C110.389 15.227 110.389 15.2643 110.401 15.3002L113.958 21.3766L113.994 21.4856C113.994 21.5827 113.927 21.632 113.793 21.632H111.482C111.359 21.632 111.267 21.5842 111.207 21.4856L108.823 17.3252C108.787 17.252 108.75 17.252 108.714 17.3252L106.311 21.4856C106.249 21.5827 106.157 21.632 106.036 21.632H103.724C103.639 21.632 103.577 21.6081 103.541 21.5588H103.543Z" fill="var(--text_00)"></path><rect width="32" height="32" rx="6.58228" fill="#6A4FF1"></rect><path opacity="0.4" d="M5.9913 14.6872V17.8342" stroke="white" stroke-width="1.99088" stroke-linecap="round"></path><path d="M19.3392 21.2979V9.12962C19.3392 8.19812 18.584 7.44299 17.6525 7.44299V7.44299C16.721 7.44299 15.9659 8.19812 15.9659 9.12962V22.9511C15.9659 23.866 15.2243 24.6077 14.3094 24.6077V24.6077C13.3945 24.6077 12.6529 23.866 12.6529 22.9511V21.2979V12.3126" stroke="white" stroke-width="1.99088" stroke-linecap="round"></path><path opacity="0.8" d="M22.5919 11.7864V20.0463" stroke="white" stroke-width="1.99088" stroke-linecap="round"></path><path opacity="0.4" d="M26.0253 15.106V17.1648" stroke="white" stroke-width="1.99088" stroke-linecap="round"></path><path opacity="0.8" d="M9.3398 20.0464V12.3126" stroke="white" stroke-width="1.99088" stroke-linecap="round"></path></svg>